<svg width="19" height="16" viewBox="0 0 19 16" fill="none" xmlns="http://www.w3.org/2000/svg">
<path id="Vector" d="M19 5.16789C19 11.0026 10.1964 15.7254 9.82147 15.9204C9.72266 15.9727 9.6122 16 9.5 16C9.38779 16 9.27734 15.9727 9.17853 15.9204C8.80362 15.7254 0 11.0026 0 5.16789C0.00157152 3.79775 0.55614 2.48418 1.54204 1.51534C2.52794 0.546512 3.86466 0.00154431 5.25893 0C7.01049 0 8.54406 0.740174 9.5 1.9913C10.4559 0.740174 11.9895 0 13.7411 0C15.1353 0.00154431 16.4721 0.546512 17.458 1.51534C18.4439 2.48418 18.9984 3.79775 19 5.16789Z" fill="#756E6E"/>
</svg>
