<svg width="59" height="59" viewBox="0 0 59 59" fill="none" xmlns="http://www.w3.org/2000/svg">
<path d="M34.0028 44.0907H24.9979C23.5008 44.0907 22.2964 42.8861 22.2964 41.3888V22.4757H12.4248C10.4212 22.4757 9.41936 20.0553 10.8376 18.6368L27.9583 1.50239C28.8025 0.658057 30.187 0.658057 31.0312 1.50239L48.1631 18.6368C49.5814 20.0553 48.5796 22.4757 46.576 22.4757H36.7043V41.3888C36.7043 42.8861 35.4999 44.0907 34.0028 44.0907ZM58.3162 43.1901V55.7988C58.3162 57.2961 57.1117 58.5007 55.6147 58.5007H3.38605C1.88898 58.5007 0.68457 57.2961 0.68457 55.7988V43.1901C0.68457 41.6928 1.88898 40.4882 3.38605 40.4882H18.6944V41.3888C18.6944 44.8675 21.5197 47.6932 24.9979 47.6932H34.0028C37.481 47.6932 40.3063 44.8675 40.3063 41.3888V40.4882H55.6147C57.1117 40.4882 58.3162 41.6928 58.3162 43.1901ZM44.3585 53.097C44.3585 51.8586 43.3454 50.8454 42.1073 50.8454C40.8691 50.8454 39.856 51.8586 39.856 53.097C39.856 54.3353 40.8691 55.3485 42.1073 55.3485C43.3454 55.3485 44.3585 54.3353 44.3585 53.097ZM51.5625 53.097C51.5625 51.8586 50.5494 50.8454 49.3112 50.8454C48.073 50.8454 47.06 51.8586 47.06 53.097C47.06 54.3353 48.073 55.3485 49.3112 55.3485C50.5494 55.3485 51.5625 54.3353 51.5625 53.097Z" fill="#4299FF"/>
</svg>
