<svg width="12" height="12" viewBox="0 0 12 12" fill="none" xmlns="http://www.w3.org/2000/svg">
<path d="M6.97319 1.94072C6.97319 1.47688 6.6342 1.08268 6.1756 1.01322C6.0592 0.995592 5.94081 0.995592 5.8244 1.01322C5.3658 1.08268 5.0268 1.47688 5.0268 1.94072V2.59665C4.76479 2.67143 4.51519 2.77565 4.28181 2.90551L3.8178 2.4415C3.48982 2.11352 2.97138 2.07449 2.59799 2.34965C2.50321 2.41949 2.41949 2.50321 2.34965 2.59799C2.07448 2.97139 2.11352 3.48983 2.4415 3.81781L2.90551 4.28182C2.77565 4.51519 2.67143 4.76479 2.59665 5.02681H1.94072C1.47688 5.02681 1.08268 5.3658 1.01322 5.8244C0.995592 5.94081 0.995592 6.0592 1.01322 6.1756C1.08268 6.63421 1.47688 6.97319 1.94072 6.97319H2.59665C2.67143 7.23521 2.77565 7.48481 2.90551 7.71819L2.44151 8.18219C2.11352 8.51017 2.07448 9.02862 2.34965 9.40202C2.41949 9.49679 2.50321 9.58051 2.59799 9.65035C2.97139 9.92552 3.48983 9.88648 3.81781 9.5585L4.28181 9.09449C4.51519 9.22435 4.76479 9.32857 5.0268 9.40336V10.0593C5.0268 10.5231 5.36579 10.9173 5.8244 10.9868C5.9408 11.0044 6.0592 11.0044 6.1756 10.9868C6.6342 10.9173 6.97319 10.5231 6.97319 10.0593V9.40336C7.23521 9.32858 7.48481 9.22436 7.71819 9.0945L8.18219 9.5585C8.51017 9.88648 9.02862 9.92552 9.40202 9.65035C9.49679 9.58051 9.58051 9.49679 9.65035 9.40202C9.92552 9.02862 9.88648 8.51018 9.5585 8.1822L9.09449 7.71819C9.22435 7.48481 9.32858 7.23521 9.40336 6.97319H10.0593C10.5231 6.97319 10.9173 6.63421 10.9868 6.1756C11.0044 6.0592 11.0044 5.94081 10.9868 5.8244C10.9173 5.3658 10.5231 5.0268 10.0593 5.0268H9.40336C9.32857 4.76479 9.22435 4.51519 9.09449 4.28181L9.5585 3.8178C9.88648 3.48982 9.92552 2.97138 9.65036 2.59799C9.58051 2.50321 9.4968 2.41949 9.40202 2.34965C9.02862 2.07448 8.51017 2.11352 8.18219 2.4415L7.71819 2.90551C7.48481 2.77565 7.23521 2.67143 6.97319 2.59665V1.94072Z" stroke="#AF2C2C" stroke-linecap="round" stroke-linejoin="round"/>
</svg>
