<svg width="10" height="17" viewBox="0 0 10 17" fill="none" xmlns="http://www.w3.org/2000/svg">
<path d="M4.89518 16.416C2.48852 16.416 0.541016 14.4685 0.541016 12.0618L0.541016 3.74935C0.541016 1.99977 1.9581 0.582683 3.70768 0.582683C5.45727 0.582683 6.87435 1.99977 6.87435 3.74935L6.87435 10.4785C6.87435 11.571 5.98768 12.4577 4.89518 12.4577C3.80268 12.4577 2.91602 11.571 2.91602 10.4785L2.91602 4.54102L4.49935 4.54102L4.49935 10.5498C4.49935 10.9852 5.29102 10.9852 5.29102 10.5498L5.29102 3.74935C5.29102 2.87852 4.57852 2.16602 3.70768 2.16602C2.83685 2.16602 2.12435 2.87852 2.12435 3.74935L2.12435 12.0618C2.12435 13.5898 3.36727 14.8327 4.89518 14.8327C6.4231 14.8327 7.66602 13.5898 7.66602 12.0618L7.66602 4.54102H9.24935L9.24935 12.0618C9.24935 14.4685 7.30185 16.416 4.89518 16.416Z" fill="#CC2323"/>
</svg>
