<svg width="28" height="20" viewBox="0 0 28 20" fill="none" xmlns="http://www.w3.org/2000/svg">
<path d="M26.3584 0.00242437C23.6944 0.141263 18.3996 0.646618 15.131 2.48411C14.9054 2.61089 14.7775 2.83634 14.7775 3.07205V19.3162C14.7775 19.8318 15.3915 20.1577 15.9092 19.9184C19.2722 18.3639 24.1358 17.9398 26.5407 17.8238C27.3617 17.784 28 17.1796 28 16.455V1.37295C28.0005 0.582332 27.2538 -0.044004 26.3584 0.00242437ZM12.869 2.48411C9.60086 0.646618 4.30605 0.141709 1.64211 0.00242437C0.74668 -0.044004 0 0.582332 0 1.37295V16.4555C0 17.1805 0.638275 17.7849 1.45933 17.8242C3.86514 17.9403 8.73119 18.3648 12.0942 19.9202C12.6104 20.159 13.2225 19.8336 13.2225 19.3193V3.06402C13.2225 2.82786 13.0951 2.61134 12.869 2.48411Z" fill="#818181"/>
</svg>
