<svg width="19" height="15" viewBox="0 0 19 15" fill="none" xmlns="http://www.w3.org/2000/svg">
<path d="M15.8333 12.6667V13.1944C15.8333 14.0689 15.1245 14.7778 14.25 14.7778H1.58333C0.708872 14.7778 0 14.0689 0 13.1944V4.75C0 3.87554 0.708872 3.16667 1.58333 3.16667H2.11111V10.0278C2.11111 11.4829 3.29492 12.6667 4.75 12.6667H15.8333ZM19 10.0278V1.58333C19 0.708872 18.2911 0 17.4167 0H4.75C3.87554 0 3.16667 0.708872 3.16667 1.58333V10.0278C3.16667 10.9022 3.87554 11.6111 4.75 11.6111H17.4167C18.2911 11.6111 19 10.9022 19 10.0278ZM8.44444 3.16667C8.44444 4.04113 7.73557 4.75 6.86111 4.75C5.98665 4.75 5.27778 4.04113 5.27778 3.16667C5.27778 2.2922 5.98665 1.58333 6.86111 1.58333C7.73557 1.58333 8.44444 2.2922 8.44444 3.16667ZM5.27778 7.91667L7.109 6.08544C7.26357 5.93087 7.5142 5.93087 7.66881 6.08544L8.97222 7.38889L13.4423 2.91878C13.5969 2.7642 13.8475 2.7642 14.0021 2.91878L16.8889 5.80556V9.5H5.27778V7.91667Z" fill="#BF3535"/>
</svg>
