<svg width="19" height="25" viewBox="0 0 19 25" fill="none" xmlns="http://www.w3.org/2000/svg">
<path d="M1.35714 22.6562C1.35714 23.2779 1.57162 23.874 1.95339 24.3135C2.33516 24.7531 2.85295 25 3.39286 25H15.6071C16.147 25 16.6648 24.7531 17.0466 24.3135C17.4284 23.874 17.6429 23.2779 17.6429 22.6562V6.25001H1.35714V22.6562ZM12.8929 10.1563C12.8929 9.94905 12.9643 9.75034 13.0916 9.60383C13.2189 9.45731 13.3915 9.375 13.5714 9.375C13.7514 9.375 13.924 9.45731 14.0513 9.60383C14.1785 9.75034 14.25 9.94905 14.25 10.1563V21.0938C14.25 21.301 14.1785 21.4997 14.0513 21.6462C13.924 21.7927 13.7514 21.875 13.5714 21.875C13.3915 21.875 13.2189 21.7927 13.0916 21.6462C12.9643 21.4997 12.8929 21.301 12.8929 21.0938V10.1563ZM8.82143 10.1563C8.82143 9.94905 8.89292 9.75034 9.02018 9.60383C9.14743 9.45731 9.32003 9.375 9.5 9.375C9.67997 9.375 9.85256 9.45731 9.97982 9.60383C10.1071 9.75034 10.1786 9.94905 10.1786 10.1563V21.0938C10.1786 21.301 10.1071 21.4997 9.97982 21.6462C9.85256 21.7927 9.67997 21.875 9.5 21.875C9.32003 21.875 9.14743 21.7927 9.02018 21.6462C8.89292 21.4997 8.82143 21.301 8.82143 21.0938V10.1563ZM4.75 10.1563C4.75 9.94905 4.82149 9.75034 4.94875 9.60383C5.07601 9.45731 5.2486 9.375 5.42857 9.375C5.60854 9.375 5.78114 9.45731 5.90839 9.60383C6.03565 9.75034 6.10714 9.94905 6.10714 10.1563V21.0938C6.10714 21.301 6.03565 21.4997 5.90839 21.6462C5.78114 21.7927 5.60854 21.875 5.42857 21.875C5.2486 21.875 5.07601 21.7927 4.94875 21.6462C4.82149 21.4997 4.75 21.301 4.75 21.0938V10.1563ZM18.3214 1.56251H13.2321L12.8335 0.649422C12.749 0.454214 12.6189 0.29001 12.4579 0.175281C12.2968 0.0605526 12.1111 -0.00014785 11.9217 8.56089e-06H7.07411C6.88512 -0.000827891 6.69974 0.0596462 6.53923 0.174502C6.37871 0.289359 6.24954 0.453951 6.16652 0.649422L5.76786 1.56251H0.678571C0.498603 1.56251 0.326006 1.64482 0.198749 1.79133C0.0714922 1.93784 0 2.13656 0 2.34376L0 3.90626C0 4.11346 0.0714922 4.31217 0.198749 4.45868C0.326006 4.6052 0.498603 4.68751 0.678571 4.68751H18.3214C18.5014 4.68751 18.674 4.6052 18.8013 4.45868C18.9285 4.31217 19 4.11346 19 3.90626V2.34376C19 2.13656 18.9285 1.93784 18.8013 1.79133C18.674 1.64482 18.5014 1.56251 18.3214 1.56251Z" fill="#FB2323"/>
</svg>
