<svg width="210" height="210" viewBox="0 0 210 210" fill="none" xmlns="http://www.w3.org/2000/svg">
<path d="M180.299 175.133C181.033 175.817 181.075 176.968 180.378 177.69C162.069 196.678 137.247 208.073 110.866 209.553C83.8808 211.068 57.3548 202.089 36.8366 184.496C16.3183 166.903 3.39714 142.058 0.775607 115.157C-1.84593 88.2562 6.03524 61.3837 22.7707 40.1601C39.5061 18.9364 63.7996 5.00553 90.5699 1.28114C117.34 -2.44325 144.514 4.32736 166.407 20.1768C188.3 36.0263 203.217 59.727 208.038 86.3216C212.751 112.32 207.459 139.115 193.265 161.348C192.725 162.193 191.596 162.421 190.76 161.867C189.924 161.312 189.697 160.186 190.236 159.34C203.912 137.889 209.009 112.045 204.463 86.9697C199.81 61.2977 185.41 38.4194 164.276 23.1198C143.143 7.82025 116.912 1.28456 91.0705 4.87973C65.2291 8.4749 41.7785 21.9225 25.6237 42.4097C9.46887 62.897 1.86114 88.8371 4.39173 114.804C6.9223 140.772 19.3952 164.755 39.2015 181.738C59.0079 198.721 84.6136 207.388 110.663 205.926C136.107 204.498 160.049 193.515 177.719 175.214C178.416 174.492 179.565 174.449 180.299 175.133Z" fill="url(#paint0_linear_63_4139)"/>
<defs>
<linearGradient id="paint0_linear_63_4139" x1="137.479" y1="-15.6204" x2="19.0004" y2="202.898" gradientUnits="userSpaceOnUse">
<stop stop-color="#C93B3B"/>
<stop offset="1" stop-color="#C93B3B"/>
</linearGradient>
</defs>
</svg>
