<svg width="20" height="20" viewBox="0 0 20 20" fill="none" xmlns="http://www.w3.org/2000/svg">
<path opacity="0.4" d="M14.8843 3.11485H11.9413C11.2081 3.11969 10.512 2.79355 10.0474 2.22751L9.0782 0.887624C8.62137 0.316613 7.9253 -0.0110553 7.19321 0.000284957H5.11261C1.37819 0.000284957 1.05022e-05 2.19201 1.05022e-05 5.91884V9.94736C-0.00463617 10.3904 19.9956 10.3898 19.9969 9.94736V8.77607C20.0147 5.04924 18.6721 3.11485 14.8843 3.11485Z" fill="#B9B9B9"/>
<path fill-rule="evenodd" clip-rule="evenodd" d="M18.8321 4.54378C19.1521 4.91786 19.3993 5.34817 19.5612 5.81267C19.8798 6.76736 20.0273 7.77061 19.9969 8.77639V14.0294C19.9956 14.4719 19.963 14.9137 19.8991 15.3516C19.7775 16.1243 19.5057 16.8658 19.0989 17.5344C18.9119 17.8574 18.6849 18.1555 18.4231 18.4218C17.2383 19.5092 15.665 20.0752 14.0574 19.9924H5.93061C4.32049 20.0746 2.74461 19.5088 1.55601 18.4218C1.2974 18.155 1.07337 17.8569 0.889148 17.5344C0.48475 16.8663 0.218689 16.1241 0.106699 15.3516C0.0354885 14.9144 -0.000193636 14.4723 0 14.0294V8.77639C-0.000173391 8.33767 0.0235723 7.89927 0.0711327 7.46312C0.081134 7.3866 0.096135 7.31133 0.110981 7.23684C0.13573 7.11265 0.160047 6.99063 0.160047 6.86861C0.250306 6.34228 0.414958 5.83141 0.649078 5.35126C1.34261 3.8694 2.76525 3.11516 5.09481 3.11516H14.8754C16.1802 3.01425 17.4753 3.40705 18.5032 4.21546C18.6215 4.31584 18.7316 4.42564 18.8321 4.54378ZM4.97033 13.5414H15.0355H15.0533C15.2741 13.551 15.4896 13.4719 15.6517 13.3219C15.8137 13.1718 15.9088 12.9633 15.9157 12.7428C15.9282 12.549 15.8644 12.358 15.7379 12.2104C15.5924 12.0121 15.3618 11.8937 15.1155 11.8909H4.97033C4.51365 11.8909 4.14343 12.2604 4.14343 12.7162C4.14343 13.1719 4.51365 13.5414 4.97033 13.5414Z" fill="#B9B9B9"/>
</svg>
