<svg width="29" height="29" viewBox="0 0 29 29" fill="none" xmlns="http://www.w3.org/2000/svg">
<path d="M26.1 0H2.9C1.305 0 0 1.305 0 2.9V26.1C0 27.695 1.305 29 2.9 29H26.1C27.695 29 29 27.695 29 26.1V2.9C29 1.305 27.695 0 26.1 0ZM8.7 26.1H2.9V20.3H8.7V26.1ZM8.7 17.4H2.9V11.6H8.7V17.4ZM8.7 8.7H2.9V2.9H8.7V8.7ZM17.4 26.1H11.6V20.3H17.4V26.1ZM17.4 17.4H11.6V11.6H17.4V17.4ZM17.4 8.7H11.6V2.9H17.4V8.7ZM26.1 26.1H20.3V20.3H26.1V26.1ZM26.1 17.4H20.3V11.6H26.1V17.4ZM26.1 8.7H20.3V2.9H26.1V8.7Z" fill="#D44141"/>
</svg>
