<svg width="16" height="18" viewBox="0 0 16 18" fill="none" xmlns="http://www.w3.org/2000/svg">
<path d="M5.61847 16.3183V13.7625C5.61846 13.1149 6.14509 12.5888 6.79739 12.5847H9.19254C9.84776 12.5847 10.3789 13.112 10.3789 13.7625V16.3109C10.3789 16.8726 10.8354 17.3291 11.4011 17.3331H13.0352C13.7984 17.3351 14.531 17.0355 15.0713 16.5004C15.6117 15.9654 15.9154 15.2388 15.9154 14.4811V7.22138C15.9153 6.60933 15.6421 6.02876 15.1692 5.63609L9.61785 1.22839C8.64746 0.457439 7.26151 0.482344 6.31986 1.28766L0.887875 5.63609C0.392648 6.01719 0.0966582 6.59947 0.0820312 7.22138V14.4737C0.0820313 16.0529 1.37152 17.3331 2.96218 17.3331H4.55894C4.83134 17.3351 5.09327 17.2291 5.28659 17.0385C5.47991 16.848 5.58864 16.5887 5.58863 16.3183H5.61847Z" fill="#BF3535"/>
</svg>
