<svg width="9" height="11" viewBox="0 0 9 11" fill="none" xmlns="http://www.w3.org/2000/svg">
<path d="M8.03571 4.725H7.55357V3.20625C7.55357 1.43859 6.18348 0 4.5 0C2.81652 0 1.44643 1.43859 1.44643 3.20625V4.725H0.964286C0.43192 4.725 0 5.17851 0 5.7375V9.7875C0 10.3465 0.43192 10.8 0.964286 10.8H8.03571C8.56808 10.8 9 10.3465 9 9.7875V5.7375C9 5.17851 8.56808 4.725 8.03571 4.725ZM5.94643 4.725H3.05357V3.20625C3.05357 2.36883 3.70246 1.6875 4.5 1.6875C5.29754 1.6875 5.94643 2.36883 5.94643 3.20625V4.725Z" fill="url(#paint0_linear_773_10164)"/>
<defs>
<linearGradient id="paint0_linear_773_10164" x1="4.5" y1="0" x2="4.5" y2="10.8" gradientUnits="userSpaceOnUse">
<stop stop-color="#D54242"/>
<stop offset="1" stop-color="#931D1D"/>
</linearGradient>
</defs>
</svg>
