<svg width="19" height="16" viewBox="0 0 19 16" fill="none" xmlns="http://www.w3.org/2000/svg">
<path d="M14.7826 6.70763L8.49238 0.417377C8.22514 0.150137 7.86269 1.97623e-06 7.48476 0H1.425C0.637985 0 0 0.637985 0 1.425V7.48476C1.97623e-06 7.86269 0.150137 8.22514 0.417377 8.49238L6.70763 14.7826C7.26409 15.3391 8.16635 15.3392 8.72287 14.7826L14.7826 8.72287C15.3391 8.16638 15.3391 7.26412 14.7826 6.70763ZM3.325 4.75C2.53799 4.75 1.9 4.11202 1.9 3.325C1.9 2.53799 2.53799 1.9 3.325 1.9C4.11202 1.9 4.75 2.53799 4.75 3.325C4.75 4.11202 4.11202 4.75 3.325 4.75ZM18.5826 8.72287L12.5229 14.7826C11.9664 15.3391 11.0641 15.3391 10.5076 14.7826L10.4969 14.7719L15.6643 9.60456C16.169 9.09991 16.4469 8.42894 16.4469 7.71525C16.4469 7.00156 16.1689 6.33059 15.6643 5.82594L9.83835 0H11.2848C11.6627 1.97623e-06 12.0251 0.150137 12.2924 0.417377L18.5826 6.70763C19.1391 7.26412 19.1391 8.16638 18.5826 8.72287Z" fill="url(#paint0_linear_771_8299)"/>
<defs>
<linearGradient id="paint0_linear_771_8299" x1="9.5" y1="0" x2="9.88" y2="25.84" gradientUnits="userSpaceOnUse">
<stop stop-color="#BF1414"/>
<stop offset="1" stop-color="#FC5A5A"/>
</linearGradient>
</defs>
</svg>
