<svg width="23" height="23" viewBox="0 0 23 23" fill="none" xmlns="http://www.w3.org/2000/svg">
<path d="M0.658683 16.4286H14.127C14.2136 16.4286 14.2992 16.4116 14.3792 16.3786C14.4591 16.3455 14.5318 16.297 14.5929 16.2358C14.6541 16.1746 14.7026 16.102 14.7357 16.022C14.7688 15.9421 14.7858 15.8564 14.7857 15.7699V13.8015C14.7858 13.715 14.7688 13.6293 14.7357 13.5494C14.7026 13.4694 14.6541 13.3968 14.5929 13.3356C14.5318 13.2745 14.4591 13.2259 14.3792 13.1929C14.2992 13.1598 14.2136 13.1428 14.127 13.1429H0.658683C0.572165 13.1428 0.486482 13.1598 0.406536 13.1929C0.326591 13.2259 0.253951 13.2745 0.192773 13.3356C0.131596 13.3968 0.08308 13.4694 0.050002 13.5494C0.0169239 13.6293 -6.73131e-05 13.715 2.00406e-07 13.8015V15.7699C-6.73131e-05 15.8564 0.0169239 15.9421 0.050002 16.022C0.08308 16.102 0.131596 16.1746 0.192773 16.2358C0.253951 16.297 0.326591 16.3455 0.406536 16.3786C0.486482 16.4116 0.572165 16.4286 0.658683 16.4286ZM0.658683 3.28571H14.127C14.2136 3.28578 14.2992 3.26879 14.3792 3.23571C14.4591 3.20263 14.5318 3.15412 14.5929 3.09294C14.6541 3.03176 14.7026 2.95912 14.7357 2.87918C14.7688 2.79923 14.7858 2.71355 14.7857 2.62703V0.658683C14.7858 0.572165 14.7688 0.486482 14.7357 0.406536C14.7026 0.326591 14.6541 0.253951 14.5929 0.192773C14.5318 0.131596 14.4591 0.0830799 14.3792 0.0500019C14.2992 0.0169239 14.2136 -6.73131e-05 14.127 2.00407e-07H0.658683C0.572165 -6.73131e-05 0.486482 0.0169239 0.406536 0.0500019C0.326591 0.0830799 0.253951 0.131596 0.192773 0.192773C0.131596 0.253951 0.08308 0.326591 0.050002 0.406536C0.0169239 0.486482 -6.73131e-05 0.572165 2.00406e-07 0.658683V2.62703C-6.73131e-05 2.71355 0.0169239 2.79923 0.050002 2.87918C0.08308 2.95912 0.131596 3.03176 0.192773 3.09294C0.253951 3.15412 0.326591 3.20263 0.406536 3.23571C0.486482 3.26879 0.572165 3.28578 0.658683 3.28571ZM22.1786 6.57143H0.821429C0.603572 6.57143 0.394639 6.65797 0.240591 6.81202C0.0865433 6.96607 2.00406e-07 7.175 2.00406e-07 7.39286V9.03571C2.00406e-07 9.25357 0.0865433 9.4625 0.240591 9.61655C0.394639 9.7706 0.603572 9.85714 0.821429 9.85714H22.1786C22.3964 9.85714 22.6054 9.7706 22.7594 9.61655C22.9135 9.4625 23 9.25357 23 9.03571V7.39286C23 7.175 22.9135 6.96607 22.7594 6.81202C22.6054 6.65797 22.3964 6.57143 22.1786 6.57143ZM22.1786 19.7143H0.821429C0.603572 19.7143 0.394639 19.8008 0.240591 19.9549C0.0865433 20.1089 2.00406e-07 20.3179 2.00406e-07 20.5357V22.1786C2.00406e-07 22.3964 0.0865433 22.6054 0.240591 22.7594C0.394639 22.9135 0.603572 23 0.821429 23H22.1786C22.3964 23 22.6054 22.9135 22.7594 22.7594C22.9135 22.6054 23 22.3964 23 22.1786V20.5357C23 20.3179 22.9135 20.1089 22.7594 19.9549C22.6054 19.8008 22.3964 19.7143 22.1786 19.7143Z" fill="#BF3535"/>
</svg>
