<svg width="37" height="37" viewBox="0 0 37 37" fill="none" xmlns="http://www.w3.org/2000/svg">
<path d="M18.5 0C8.28024 0 0 8.28024 0 18.5C0 28.7198 8.28024 37 18.5 37C28.7198 37 37 28.7198 37 18.5C37 8.28024 28.7198 0 18.5 0ZM29.2419 20.5887C29.2419 21.081 28.8391 21.4839 28.3468 21.4839H21.4839V28.3468C21.4839 28.8391 21.081 29.2419 20.5887 29.2419H16.4113C15.919 29.2419 15.5161 28.8391 15.5161 28.3468V21.4839H8.65323C8.16089 21.4839 7.75806 21.081 7.75806 20.5887V16.4113C7.75806 15.919 8.16089 15.5161 8.65323 15.5161H15.5161V8.65323C15.5161 8.16089 15.919 7.75806 16.4113 7.75806H20.5887C21.081 7.75806 21.4839 8.16089 21.4839 8.65323V15.5161H28.3468C28.8391 15.5161 29.2419 15.919 29.2419 16.4113V20.5887Z" fill="#5C83BE"/>
</svg>
