<svg width="19" height="19" viewBox="0 0 19 19" fill="none" xmlns="http://www.w3.org/2000/svg">
<path d="M9.5 0C4.25202 0 0 4.25202 0 9.5C0 14.748 4.25202 19 9.5 19C14.748 19 19 14.748 19 9.5C19 4.25202 14.748 0 9.5 0ZM15.0161 10.5726C15.0161 10.8254 14.8093 11.0323 14.5565 11.0323H11.0323V14.5565C11.0323 14.8093 10.8254 15.0161 10.5726 15.0161H8.42742C8.1746 15.0161 7.96774 14.8093 7.96774 14.5565V11.0323H4.44355C4.19073 11.0323 3.98387 10.8254 3.98387 10.5726V8.42742C3.98387 8.1746 4.19073 7.96774 4.44355 7.96774H7.96774V4.44355C7.96774 4.19073 8.1746 3.98387 8.42742 3.98387H10.5726C10.8254 3.98387 11.0323 4.19073 11.0323 4.44355V7.96774H14.5565C14.8093 7.96774 15.0161 8.1746 15.0161 8.42742V10.5726Z" fill="black"/>
</svg>
