<svg width="200" height="200" viewBox="0 0 200 200" fill="none" xmlns="http://www.w3.org/2000/svg">
<g clip-path="url(#clip0_17_207)">
<path d="M99.9998 115C121.171 115 138.333 97.8375 138.333 76.6666C138.333 55.4957 121.171 38.3333 99.9998 38.3333C78.8289 38.3333 61.6665 55.4957 61.6665 76.6666C61.6665 97.8375 78.8289 115 99.9998 115Z" fill="#B52F2F"/>
<mask id="mask0_17_207" style="mask-type:luminance" maskUnits="userSpaceOnUse" x="6" y="6" width="188" height="188">
<path d="M99.9998 193.333C151.546 193.333 193.333 151.547 193.333 100C193.333 48.4535 151.546 6.66675 99.9998 6.66675C48.4533 6.66675 6.6665 48.4535 6.6665 100C6.6665 151.547 48.4533 193.333 99.9998 193.333Z" fill="white"/>
</mask>
<g mask="url(#mask0_17_207)">
<path d="M99.9998 259.247C137.739 259.247 168.333 228.654 168.333 190.914C168.333 153.175 137.739 122.581 99.9998 122.581C62.2604 122.581 31.6665 153.175 31.6665 190.914C31.6665 228.654 62.2604 259.247 99.9998 259.247Z" fill="#B52F2F"/>
</g>
</g>
<defs>
<clipPath id="clip0_17_207">
<rect width="200" height="200" fill="white"/>
</clipPath>
</defs>
</svg>