<svg width="13" height="13" viewBox="0 0 13 13" fill="none" xmlns="http://www.w3.org/2000/svg">
<path d="M9.50677 3.28355C8.68741 2.51634 7.62408 2.09578 6.49602 2.09677C4.46587 2.09856 2.71323 3.49055 2.22932 5.42147C2.19409 5.56203 2.06886 5.66129 1.92395 5.66129H0.422054C0.225534 5.66129 0.0762439 5.48288 0.112597 5.28974C0.679695 2.27825 3.32373 0 6.5 0C8.24158 0 9.82315 0.685016 10.9901 1.80021L11.9262 0.864133C12.3225 0.467869 13 0.748522 13 1.30894V4.82258C13 5.16999 12.7184 5.45161 12.371 5.45161H8.85732C8.29691 5.45161 8.01626 4.77407 8.41252 4.37778L9.50677 3.28355ZM0.629032 7.54839H4.14268C4.70309 7.54839 4.98374 8.22593 4.58748 8.62222L3.49323 9.71648C4.31259 10.4837 5.376 10.9043 6.50409 10.9033C8.53319 10.9014 10.2865 9.51036 10.7707 7.57858C10.8059 7.43802 10.9311 7.33876 11.0761 7.33876H12.578C12.7745 7.33876 12.9238 7.51717 12.8874 7.71031C12.3203 10.7218 9.67627 13 6.5 13C4.75842 13 3.17685 12.315 2.00989 11.1998L1.07381 12.1359C0.677546 12.5321 0 12.2515 0 11.6911V8.17742C0 7.83001 0.281623 7.54839 0.629032 7.54839Z" fill="#70A9FF"/>
</svg>
