<svg width="20" height="20" viewBox="0 0 20 20" fill="none" xmlns="http://www.w3.org/2000/svg">
<path d="M9.61 0C14.9187 0 19.22 4.30125 19.22 9.61C19.22 14.9187 14.9187 19.22 9.61 19.22C4.30125 19.22 0 14.9187 0 9.61C0 4.30125 4.30125 0 9.61 0ZM5.115 11.315H9.61V14.0624C9.61 14.477 10.1138 14.6862 10.4044 14.3918L14.8335 9.93937C15.0156 9.75725 15.0156 9.46663 14.8335 9.2845L10.4044 4.82825C10.1099 4.53375 9.61 4.743 9.61 5.15763V7.905H5.115C4.85925 7.905 4.65 8.11425 4.65 8.37V10.85C4.65 11.1058 4.85925 11.315 5.115 11.315Z" fill="url(#paint0_linear_771_8300)"/>
<defs>
<linearGradient id="paint0_linear_771_8300" x1="9.61" y1="0" x2="9.61" y2="27.776" gradientUnits="userSpaceOnUse">
<stop stop-color="#C21818"/>
<stop offset="1" stop-color="#F04A4A"/>
</linearGradient>
</defs>
</svg>
