<svg width="17" height="17" viewBox="0 0 17 17" fill="none" xmlns="http://www.w3.org/2000/svg">
<path d="M16.3503 3.69028L13.1897 0.529723C12.8506 0.190549 12.3905 2.50817e-06 11.9109 0H1.80857C0.809712 0 0 0.809712 0 1.80857V15.0714C0 16.0703 0.809712 16.88 1.80857 16.88H15.0714C16.0703 16.88 16.88 16.0703 16.88 15.0714V4.96913C16.88 4.48946 16.6894 4.02945 16.3503 3.69028ZM8.44 14.4686C7.10821 14.4686 6.02857 13.3889 6.02857 12.0571C6.02857 10.7254 7.10821 9.64571 8.44 9.64571C9.77179 9.64571 10.8514 10.7254 10.8514 12.0571C10.8514 13.3889 9.77179 14.4686 8.44 14.4686ZM12.0571 2.99469V6.78214C12.0571 7.03184 11.8547 7.23429 11.605 7.23429H2.86357C2.61388 7.23429 2.41143 7.03184 2.41143 6.78214V2.86357C2.41143 2.61388 2.61388 2.41143 2.86357 2.41143H11.4739C11.5938 2.41143 11.7088 2.45905 11.7936 2.54387L11.9247 2.67499C11.9667 2.71697 12 2.76681 12.0227 2.82167C12.0455 2.87652 12.0571 2.93532 12.0571 2.99469Z" fill="#408BE2"/>
</svg>
