<svg width="15" height="15" viewBox="0 0 15 15" fill="none" xmlns="http://www.w3.org/2000/svg">
<path d="M3.57365 6.76714H1.44368C1.09077 6.76714 0.804688 7.05322 0.804688 7.40613V13.796C0.804688 14.1489 1.09077 14.435 1.44368 14.435H3.57365C3.92656 14.435 4.21264 14.1489 4.21264 13.796V7.40613C4.21264 7.05322 3.92656 6.76714 3.57365 6.76714ZM2.50866 13.37C2.15575 13.37 1.86967 13.084 1.86967 12.7311C1.86967 12.3781 2.15575 12.0921 2.50866 12.0921C2.86157 12.0921 3.14765 12.3781 3.14765 12.7311C3.14765 13.084 2.86157 13.37 2.50866 13.37ZM11.0285 2.97185C11.0285 4.10116 10.3371 4.73461 10.1426 5.48916H12.8509C13.7401 5.48916 14.4323 6.22788 14.4365 7.03599C14.4387 7.51359 14.2356 8.02773 13.9189 8.34585L13.916 8.34877C14.1779 8.97011 14.1353 9.84074 13.6682 10.4646C13.8993 11.154 13.6663 12.001 13.232 12.455C13.3464 12.9235 13.2917 13.3223 13.0683 13.6433C12.5249 14.424 11.1781 14.435 10.0391 14.435L9.9634 14.435C8.67777 14.4345 7.6256 13.9665 6.78016 13.5903C6.35531 13.4013 5.79981 13.1674 5.37835 13.1596C5.20422 13.1564 5.06463 13.0143 5.06463 12.8402V7.14862C5.06463 7.06342 5.09876 6.98165 5.15936 6.92175C6.21407 5.87955 6.66759 4.77615 7.53206 3.91021C7.92622 3.51531 8.06956 2.91882 8.20814 2.34197C8.32654 1.84938 8.57421 0.803223 9.11157 0.803223C9.75056 0.803223 11.0285 1.01622 11.0285 2.97185Z" fill="#CCCCCC"/>
</svg>
