<svg width="9" height="12" viewBox="0 0 9 12" fill="none" xmlns="http://www.w3.org/2000/svg">
<path d="M7.875 1.4625H6C6 0.65584 5.32734 0 4.5 0C3.67266 0 3 0.65584 3 1.4625H1.125C0.503906 1.4625 0 1.95381 0 2.55938V10.6031C0 11.2087 0.503906 11.7 1.125 11.7H7.875C8.49609 11.7 9 11.2087 9 10.6031V2.55938C9 1.95381 8.49609 1.4625 7.875 1.4625ZM2.25 9.68906C1.93828 9.68906 1.6875 9.44455 1.6875 9.14062C1.6875 8.8367 1.93828 8.59219 2.25 8.59219C2.56172 8.59219 2.8125 8.8367 2.8125 9.14062C2.8125 9.44455 2.56172 9.68906 2.25 9.68906ZM2.25 7.49531C1.93828 7.49531 1.6875 7.2508 1.6875 6.94688C1.6875 6.64295 1.93828 6.39844 2.25 6.39844C2.56172 6.39844 2.8125 6.64295 2.8125 6.94688C2.8125 7.2508 2.56172 7.49531 2.25 7.49531ZM2.25 5.30156C1.93828 5.30156 1.6875 5.05705 1.6875 4.75312C1.6875 4.4492 1.93828 4.20469 2.25 4.20469C2.56172 4.20469 2.8125 4.4492 2.8125 4.75312C2.8125 5.05705 2.56172 5.30156 2.25 5.30156ZM4.5 0.914062C4.81172 0.914062 5.0625 1.15857 5.0625 1.4625C5.0625 1.76643 4.81172 2.01094 4.5 2.01094C4.18828 2.01094 3.9375 1.76643 3.9375 1.4625C3.9375 1.15857 4.18828 0.914062 4.5 0.914062ZM7.5 9.32344C7.5 9.42398 7.41563 9.50625 7.3125 9.50625H3.9375C3.83437 9.50625 3.75 9.42398 3.75 9.32344V8.95781C3.75 8.85727 3.83437 8.775 3.9375 8.775H7.3125C7.41563 8.775 7.5 8.85727 7.5 8.95781V9.32344ZM7.5 7.12969C7.5 7.23023 7.41563 7.3125 7.3125 7.3125H3.9375C3.83437 7.3125 3.75 7.23023 3.75 7.12969V6.76406C3.75 6.66352 3.83437 6.58125 3.9375 6.58125H7.3125C7.41563 6.58125 7.5 6.66352 7.5 6.76406V7.12969ZM7.5 4.93594C7.5 5.03648 7.41563 5.11875 7.3125 5.11875H3.9375C3.83437 5.11875 3.75 5.03648 3.75 4.93594V4.57031C3.75 4.46977 3.83437 4.3875 3.9375 4.3875H7.3125C7.41563 4.3875 7.5 4.46977 7.5 4.57031V4.93594Z" fill="url(#paint0_linear_773_10069)"/>
<defs>
<linearGradient id="paint0_linear_773_10069" x1="4.5" y1="0" x2="4.5" y2="11.7" gradientUnits="userSpaceOnUse">
<stop stop-color="#CE3D3D"/>
<stop offset="1" stop-color="#A32525"/>
</linearGradient>
</defs>
</svg>
