<svg width="14" height="28" viewBox="0 0 14 28" fill="none" xmlns="http://www.w3.org/2000/svg">
<path d="M12.0909 6.36364V21C12.0909 23.8127 9.81273 26.0909 7 26.0909C4.18727 26.0909 1.90909 23.8127 1.90909 21V5.09091C1.90909 3.33455 3.33455 1.90909 5.09091 1.90909C6.84727 1.90909 8.27273 3.33455 8.27273 5.09091V18.4545C8.27273 19.1545 7.7 19.7273 7 19.7273C6.3 19.7273 5.72727 19.1545 5.72727 18.4545V6.36364H3.81818V18.4545C3.81818 20.2109 5.24364 21.6364 7 21.6364C8.75636 21.6364 10.1818 20.2109 10.1818 18.4545V5.09091C10.1818 2.27818 7.90364 0 5.09091 0C2.27818 0 0 2.27818 0 5.09091V21C0 24.8691 3.13091 28 7 28C10.8691 28 14 24.8691 14 21V6.36364H12.0909Z" fill="#B23232"/>
</svg>
