<svg width="18" height="14" viewBox="0 0 18 14" fill="none" xmlns="http://www.w3.org/2000/svg">
<path d="M16.3125 13.5H1.6875C0.755508 13.5 0 12.7445 0 11.8125V1.6875C0 0.755508 0.755508 0 1.6875 0H16.3125C17.2445 0 18 0.755508 18 1.6875V11.8125C18 12.7445 17.2445 13.5 16.3125 13.5ZM3.9375 1.96875C2.85019 1.96875 1.96875 2.85019 1.96875 3.9375C1.96875 5.02481 2.85019 5.90625 3.9375 5.90625C5.02481 5.90625 5.90625 5.02481 5.90625 3.9375C5.90625 2.85019 5.02481 1.96875 3.9375 1.96875ZM2.25 11.25H15.75V7.3125L12.6733 4.2358C12.5086 4.07106 12.2414 4.07106 12.0767 4.2358L7.3125 9L5.3608 7.0483C5.19606 6.88356 4.92894 6.88356 4.76416 7.0483L2.25 9.5625V11.25Z" fill="#D23E3E"/>
</svg>
