<svg width="81" height="74" viewBox="0 0 81 74" fill="none" xmlns="http://www.w3.org/2000/svg">
<path d="M46.7715 54.9834H34.3913C32.3331 54.9834 30.6773 53.4672 30.6773 51.5827V27.7779H17.1055C14.3509 27.7779 12.9736 24.7314 14.9235 22.9461L38.4613 1.38004C39.6219 0.317329 41.5254 0.317329 42.686 1.38004L66.2393 22.9461C68.1892 24.7314 66.8119 27.7779 64.0573 27.7779H50.4855V51.5827C50.4855 53.4672 48.8297 54.9834 46.7715 54.9834ZM80.198 53.8498V69.7197C80.198 71.6042 78.5421 73.1204 76.4839 73.1204H4.6789C2.62069 73.1204 0.964844 71.6042 0.964844 69.7197V53.8498C0.964844 51.9653 2.62069 50.4491 4.6789 50.4491H25.7252V51.5827C25.7252 55.9611 29.6095 59.5176 34.3913 59.5176H46.7715C51.5533 59.5176 55.4376 55.9611 55.4376 51.5827V50.4491H76.4839C78.5421 50.4491 80.198 51.9653 80.198 53.8498ZM61.0087 66.319C61.0087 64.7603 59.6159 63.4851 57.9136 63.4851C56.2114 63.4851 54.8186 64.7603 54.8186 66.319C54.8186 67.8776 56.2114 69.1529 57.9136 69.1529C59.6159 69.1529 61.0087 67.8776 61.0087 66.319ZM70.9128 66.319C70.9128 64.7603 69.5201 63.4851 67.8178 63.4851C66.1155 63.4851 64.7227 64.7603 64.7227 66.319C64.7227 67.8776 66.1155 69.1529 67.8178 69.1529C69.5201 69.1529 70.9128 67.8776 70.9128 66.319Z" fill="white"/>
</svg>
