<svg width="25" height="28" viewBox="0 0 25 28" fill="none" xmlns="http://www.w3.org/2000/svg">
<path d="M12.1403 14.1076C15.9604 14.1076 19.0564 11.0116 19.0564 7.1915C19.0564 3.37143 15.9604 0.275391 12.1403 0.275391C8.32022 0.275391 5.22419 3.37143 5.22419 7.1915C5.22419 11.0116 8.32022 14.1076 12.1403 14.1076ZM16.9816 15.8366H16.0792C14.8797 16.3878 13.5451 16.7011 12.1403 16.7011C10.7355 16.7011 9.40627 16.3878 8.20135 15.8366H7.29902C3.28984 15.8366 0.0371094 19.0894 0.0371094 23.0985V25.3463C0.0371094 26.7781 1.1988 27.9398 2.63065 27.9398H21.6499C23.0818 27.9398 24.2435 26.7781 24.2435 25.3463V23.0985C24.2435 19.0894 20.9907 15.8366 16.9816 15.8366Z" fill="#A82929"/>
</svg>
