<svg width="17" height="17" viewBox="0 0 17 17" fill="none" xmlns="http://www.w3.org/2000/svg">
<path id="Vector" d="M8.5 0C6.81886 0 5.17547 0.498516 3.77766 1.43251C2.37984 2.3665 1.29037 3.69402 0.647028 5.24719C0.00368291 6.80036 -0.164645 8.50943 0.163329 10.1583C0.491303 11.8071 1.30085 13.3217 2.4896 14.5104C3.67834 15.6992 5.1929 16.5087 6.84174 16.8367C8.49057 17.1646 10.1996 16.9963 11.7528 16.353C13.306 15.7096 14.6335 14.6202 15.5675 13.2223C16.5015 11.8245 17 10.1811 17 8.5C17 6.24566 16.1045 4.08365 14.5104 2.48959C12.9163 0.895533 10.7543 0 8.5 0ZM13.0214 9.04339L5.73568 12.6862C5.64309 12.7325 5.54022 12.7543 5.43682 12.7497C5.33342 12.745 5.23294 12.7139 5.14491 12.6595C5.05689 12.605 4.98424 12.529 4.93388 12.4386C4.88351 12.3482 4.8571 12.2464 4.85715 12.1429V4.85714C4.8572 4.75369 4.88369 4.65197 4.9341 4.56163C4.98451 4.47129 5.05716 4.39533 5.14517 4.34095C5.23318 4.28658 5.33362 4.25559 5.43697 4.25094C5.54032 4.24628 5.64314 4.26811 5.73568 4.31436L13.0214 7.95721C13.1221 8.00769 13.2068 8.08519 13.266 8.18105C13.3252 8.27691 13.3565 8.38734 13.3565 8.5C13.3565 8.61265 13.3252 8.72309 13.266 8.81895C13.2068 8.9148 13.1221 8.99231 13.0214 9.04278V9.04339Z" fill="#756E6E"/>
</svg>
