<svg width="7" height="7" viewBox="0 0 7 7" fill="none" xmlns="http://www.w3.org/2000/svg">
<path d="M7 4.875V6.625C7.00012 6.67428 6.99051 6.7231 6.97171 6.76865C6.9529 6.8142 6.92529 6.85559 6.89044 6.89044C6.85559 6.92529 6.8142 6.9529 6.76865 6.97171C6.7231 6.99051 6.67428 7.00012 6.625 7H4.875C4.54078 7 4.37359 6.59531 4.60937 6.35937L5.175 5.79375L3.5 4.11875L1.82453 5.79531L2.39063 6.35937C2.62641 6.59531 2.45922 7 2.125 7H0.375001C0.325721 7.00012 0.276902 6.99051 0.231349 6.97171C0.185796 6.9529 0.144407 6.92529 0.10956 6.89044C0.0747137 6.85559 0.0470962 6.8142 0.0282945 6.76865C0.00949276 6.7231 -0.000122487 6.67428 1.17787e-06 6.625V4.875C1.17787e-06 4.54062 0.404532 4.37344 0.640626 4.60937L1.20609 5.175L2.88219 3.5L1.20594 1.82344L0.640626 2.39063C0.404689 2.62656 1.17787e-06 2.45938 1.17787e-06 2.125V0.375001C-0.000122487 0.325721 0.00949276 0.276902 0.0282945 0.231349C0.0470962 0.185796 0.0747137 0.144407 0.10956 0.10956C0.144407 0.0747137 0.185796 0.0470962 0.231349 0.0282945C0.276902 0.00949277 0.325721 -0.000122487 0.375001 1.17787e-06H2.125C2.45922 1.17787e-06 2.62641 0.404689 2.39063 0.640626L1.825 1.20625L3.5 2.88125L5.17547 1.20469L4.60937 0.640626C4.37359 0.404689 4.54078 1.17787e-06 4.875 1.17787e-06H6.625C6.67428 -0.000122487 6.7231 0.00949277 6.76865 0.0282945C6.8142 0.0470962 6.85559 0.0747137 6.89044 0.10956C6.92529 0.144407 6.9529 0.185796 6.97171 0.231349C6.99051 0.276902 7.00012 0.325721 7 0.375001V2.125C7 2.45938 6.59547 2.62656 6.35937 2.39063L5.79391 1.825L4.11781 3.5L5.79406 5.17656L6.35937 4.61094C6.59531 4.37344 7 4.54062 7 4.875Z" fill="#868686"/>
</svg>
